<svg width="28" height="28" viewBox="0 0 28 28" fill="none" xmlns="http://www.w3.org/2000/svg">
<mask id="mask0_678_511" style="mask-type:alpha" maskUnits="userSpaceOnUse" x="0" y="0" width="28" height="28">
<rect width="27.3799" height="27.3799" fill="#D9D9D9"/>
</mask>
<g mask="url(#mask0_678_511)">
<path d="M17.8501 18.6569L18.6572 17.8497L14.2607 13.4524V7.98581H13.1199V13.927L17.8501 18.6569ZM13.694 23.9574C12.2743 23.9574 10.9394 23.688 9.68943 23.1492C8.43965 22.6103 7.35244 21.879 6.4278 20.9553C5.50316 20.0316 4.77122 18.9454 4.23199 17.6966C3.69256 16.4479 3.42285 15.1136 3.42285 13.6937C3.42285 12.2739 3.69228 10.939 4.23113 9.68907C4.76998 8.43929 5.50126 7.35208 6.42495 6.42743C7.34864 5.50279 8.4349 4.77085 9.68373 4.23162C10.9324 3.6922 12.2667 3.42249 13.6866 3.42249C15.1064 3.42249 16.4413 3.69191 17.6912 4.23076C18.941 4.76962 20.0282 5.50089 20.9529 6.42458C21.8775 7.34827 22.6094 8.43454 23.1487 9.68336C23.6881 10.932 23.9578 12.2663 23.9578 13.6863C23.9578 15.106 23.6884 16.4409 23.1495 17.6909C22.6107 18.9406 21.8794 20.0278 20.9557 20.9525C20.032 21.8771 18.9458 22.6091 17.6969 23.1483C16.4483 23.6877 15.114 23.9574 13.694 23.9574ZM13.6903 22.8166C16.2192 22.8166 18.3725 21.9277 20.1503 20.1499C21.9281 18.3721 22.817 16.2188 22.817 13.69C22.817 11.1611 21.9281 9.0078 20.1503 7.23001C18.3725 5.45221 16.2192 4.56332 13.6903 4.56332C11.1615 4.56332 9.00817 5.45221 7.23037 7.23001C5.45258 9.0078 4.56368 11.1611 4.56368 13.69C4.56368 16.2188 5.45258 18.3721 7.23037 20.1499C9.00817 21.9277 11.1615 22.8166 13.6903 22.8166Z" fill="#909090"/>
</g>
</svg>
