<svg width="16" height="16" viewBox="0 0 16 16" fill="none" xmlns="http://www.w3.org/2000/svg">
<circle cx="8" cy="8" r="8" fill="#EA373D"/>
<path d="M5.5435 3.61956C4.47716 4.49665 3.10629 4.59197 3.10629 4.59197C3.10629 4.59197 3.4643 3.26524 4.53064 2.38816C5.59699 1.51107 6.96785 1.41575 6.96785 1.41575C6.96785 1.41575 6.60984 2.74248 5.5435 3.61956Z" fill="#F4F4F4"/>
<path d="M8.79464 3.8999C8.79464 5.28061 7.99742 6.3999 7.99742 6.3999C7.99742 6.3999 7.2002 5.28061 7.2002 3.8999C7.2002 2.51919 7.99742 1.3999 7.99742 1.3999C7.99742 1.3999 8.79464 2.51919 8.79464 3.8999Z" fill="#F4F4F4"/>
<path d="M11.5437 2.3883C12.61 3.26542 12.968 4.59216 12.968 4.59216C12.968 4.59216 11.5971 4.49679 10.5308 3.61967C9.46451 2.74254 9.10655 1.41581 9.10655 1.41581C9.10655 1.41581 10.4774 1.51117 11.5437 2.3883Z" fill="#F4F4F4"/>
</svg>
