<svg width="240" height="478" viewBox="0 0 240 478" fill="none" xmlns="http://www.w3.org/2000/svg">
<path d="M64.8604 0C65.4625 7.08341 70.5775 12.6161 76.7998 12.6162C83.0222 12.6162 88.1381 7.08351 88.7402 0H105.659C106.261 7.08352 111.377 12.6162 117.6 12.6162C123.822 12.6162 128.938 7.08352 129.54 0H146.46C147.062 7.08352 152.178 12.6162 158.4 12.6162C164.623 12.6162 169.739 7.08352 170.341 0H187.26C187.862 7.08351 192.978 12.6162 199.2 12.6162C205.422 12.6161 210.538 7.08341 211.14 0H240V478H210.96C209.848 471.602 205.006 466.786 199.2 466.786C193.395 466.786 188.552 471.602 187.44 478H170.16C169.048 471.602 164.206 466.786 158.4 466.786C152.595 466.786 147.752 471.602 146.641 478H129.359C128.248 471.602 123.405 466.786 117.6 466.786C111.794 466.786 106.952 471.602 105.84 478H88.5596C87.4477 471.602 82.6053 466.786 76.7998 466.786C70.9943 466.786 66.1519 471.602 65.04 478H47.7598C46.6479 471.602 41.8055 466.786 36 466.786C30.1945 466.786 25.3521 471.602 24.2402 478H0V0H24.0596C24.6617 7.08352 29.7776 12.6162 36 12.6162C42.2224 12.6162 47.3383 7.08352 47.9404 0H64.8604Z" fill="#EA373D"/>
</svg>
