<svg width="240" height="415" viewBox="0 0 240 415" fill="none" xmlns="http://www.w3.org/2000/svg">
<path d="M53.5801 0C53.9031 4.9163 58.1941 8.80859 63.4424 8.80859C68.6907 8.80858 72.9817 4.91629 73.3047 0H91.1377C91.4607 4.91618 95.7509 8.80845 100.999 8.80859C106.247 8.80859 110.538 4.91629 110.861 0H128.696C129.019 4.91628 133.31 8.80859 138.559 8.80859C143.807 8.80839 148.097 4.91615 148.42 0H166.254C166.577 4.91629 170.868 8.80859 176.116 8.80859C181.364 8.80854 185.656 4.91627 185.979 0H204.011C204.005 0.134082 204 0.26882 204 0.404297C204 5.59814 208.425 9.80855 213.884 9.80859C219.342 9.80859 223.768 5.59817 223.768 0.404297C223.768 0.268817 223.763 0.134084 223.757 0H240V415H223.757C223.534 409.994 219.2 406 213.884 406C208.568 406 204.234 409.994 204.012 415H185.954C185.486 410.22 181.262 406.479 176.116 406.479C170.97 406.479 166.745 410.22 166.277 415H148.396C147.929 410.22 143.704 406.479 138.559 406.479C133.413 406.479 129.187 410.22 128.72 415H110.838C110.37 410.22 106.145 406.479 100.999 406.479C95.8534 406.479 91.6288 410.22 91.1611 415H73.2812C72.8136 410.22 68.5881 406.479 63.4424 406.479C58.2966 406.479 54.0712 410.22 53.6035 415H35.7217C35.254 410.22 31.0294 406.479 25.8838 406.479C20.738 406.479 16.5126 410.22 16.0449 415H0V0H16.0215C16.3445 4.91629 20.6355 8.80859 25.8838 8.80859C31.1319 8.80844 35.4221 4.91618 35.7451 0H53.5801Z" fill="#EA373D"/>
</svg>
