<svg width="206" height="513" viewBox="0 0 206 513" fill="none" xmlns="http://www.w3.org/2000/svg">
<path d="M55.6719 0C56.1887 7.60146 60.58 13.5381 65.9209 13.5381C71.2617 13.5379 75.6532 7.60138 76.1699 0H90.6914C91.2082 7.60145 95.5995 13.5381 100.94 13.5381C106.281 13.5378 110.672 7.60126 111.188 0H125.712C126.229 7.60145 130.62 13.5381 135.961 13.5381C141.302 13.5379 145.693 7.60137 146.21 0H160.731C161.248 7.60146 165.64 13.5381 170.98 13.5381C176.321 13.5379 180.713 7.60139 181.229 0H206V512.95H181.074C180.12 506.084 175.963 500.916 170.98 500.916C165.997 500.916 161.841 506.084 160.887 512.95H146.055C145.1 506.084 140.944 500.916 135.961 500.916C130.978 500.916 126.821 506.084 125.867 512.95H111.034C110.08 506.084 105.923 500.916 100.94 500.916C95.9573 500.916 91.801 506.084 90.8467 512.95H76.0146C75.0604 506.084 70.9039 500.916 65.9209 500.916C60.9378 500.916 56.7814 506.084 55.8271 512.95H40.9941C40.0399 506.084 35.8834 500.916 30.9004 500.916C25.9173 500.916 21.7609 506.084 20.8066 512.95H0V0H20.6514C21.1682 7.60146 25.5595 13.5381 30.9004 13.5381C36.2413 13.5381 40.6326 7.60146 41.1494 0H55.6719Z" fill="#EA373D"/>
</svg>
