<svg width="36" height="36" viewBox="0 0 36 36" fill="none" xmlns="http://www.w3.org/2000/svg">
<mask id="mask0_278_508" style="mask-type:alpha" maskUnits="userSpaceOnUse" x="0" y="0" width="36" height="36">
<rect width="36" height="36" fill="#D9D9D9"/>
</mask>
<g mask="url(#mask0_278_508)">
<path d="M16.448 23.6538C16.448 21.9558 16.6436 20.6558 17.0349 19.7538C17.4261 18.8518 18.243 17.8518 19.4855 16.7538C20.4528 15.8923 21.1859 15.111 21.6849 14.41C22.1839 13.709 22.4334 12.9143 22.4334 12.0258C22.4334 10.847 22.032 9.86729 21.2293 9.08654C20.4263 8.30579 19.3209 7.91541 17.9131 7.91541C16.6286 7.91541 15.6286 8.25954 14.9131 8.94779C14.1979 9.63629 13.6546 10.4047 13.2834 11.2529L10.5459 10.0499C11.1286 8.61341 12.0383 7.41579 13.2748 6.45704C14.5113 5.49854 16.0574 5.01929 17.9131 5.01929C20.3361 5.01929 22.201 5.70241 23.5078 7.06866C24.8145 8.43491 25.4679 10.0565 25.4679 11.9335C25.4679 13.1065 25.2136 14.1417 24.7051 15.0389C24.1964 15.9359 23.4248 16.87 22.3903 17.8413C21.0883 19.0355 20.282 19.9773 19.9715 20.6665C19.6608 21.356 19.5054 22.3518 19.5054 23.6538H16.448ZM17.9131 32.2499C17.2996 32.2499 16.7713 32.0283 16.328 31.585C15.8848 31.1418 15.6631 30.6134 15.6631 29.9999C15.6631 29.3864 15.8848 28.858 16.328 28.4148C16.7713 27.9715 17.2996 27.7499 17.9131 27.7499C18.5266 27.7499 19.055 27.9715 19.4983 28.4148C19.9415 28.858 20.1631 29.3864 20.1631 29.9999C20.1631 30.6134 19.9415 31.1418 19.4983 31.585C19.055 32.0283 18.5266 32.2499 17.9131 32.2499Z" fill="#EA373D"/>
</g>
</svg>
