<svg width="70" height="25" viewBox="0 0 70 25" fill="none" xmlns="http://www.w3.org/2000/svg">
<g filter="url(#filter0_g_278_413)">
<path d="M8.527 24.288C6.94833 24.288 5.56167 23.7973 4.367 22.816C3.19367 21.8347 2.27633 20.4587 1.615 18.688C0.975 16.896 0.655 14.784 0.655 12.352C0.655 10.0053 1.007 7.95733 1.711 6.208C2.43633 4.43733 3.39633 3.072 4.591 2.112C5.807 1.13067 7.151 0.639999 8.623 0.639999C9.49767 0.639999 10.2657 0.725332 10.927 0.895998C11.5883 1.04533 12.175 1.248 12.687 1.504C12.943 1.65333 13.071 1.87733 13.071 2.176L13.167 7.04C13.167 7.40267 13.039 7.584 12.783 7.584C12.5483 7.584 12.399 7.44533 12.335 7.168L12.015 5.984C11.567 4.32 11.0443 3.168 10.447 2.528C9.871 1.888 9.17767 1.568 8.367 1.568C6.87367 1.568 5.62567 2.496 4.623 4.352C3.64167 6.18667 3.151 8.85333 3.151 12.352C3.151 14.7413 3.39633 16.7573 3.887 18.4C4.399 20.0427 5.04967 21.28 5.839 22.112C6.64967 22.944 7.503 23.36 8.399 23.36C9.359 23.36 10.127 23.0613 10.703 22.464C11.3003 21.8667 11.8017 20.7147 12.207 19.008L12.591 17.44C12.655 17.12 12.8257 16.9813 13.103 17.024C13.3377 17.0667 13.455 17.248 13.455 17.568L13.327 22.752C13.327 23.0507 13.1883 23.2747 12.911 23.424C12.399 23.68 11.791 23.8827 11.087 24.032C10.4043 24.2027 9.551 24.288 8.527 24.288ZM29.15 24.288C27.294 24.288 26.11 23.072 25.598 20.64L24.862 17.088C24.6273 15.936 24.3607 15.0613 24.062 14.464C23.7847 13.8667 23.39 13.4613 22.878 13.248C22.3873 13.0347 21.7047 12.928 20.83 12.928C20.5313 12.928 20.2967 13.0133 20.126 13.184C19.9553 13.3333 19.87 13.5253 19.87 13.76V21.76C19.87 22.208 19.9553 22.5173 20.126 22.688C20.2967 22.8373 20.6807 22.9653 21.278 23.072L22.462 23.264C22.6967 23.3067 22.814 23.424 22.814 23.616C22.814 23.872 22.654 24 22.334 24H15.838C15.518 24 15.358 23.8827 15.358 23.648C15.358 23.456 15.4967 23.328 15.774 23.264L16.51 23.136C16.958 23.0507 17.246 22.9333 17.374 22.784C17.5233 22.6347 17.598 22.336 17.598 21.888V3.072C17.598 2.624 17.5233 2.32533 17.374 2.176C17.246 2.02667 16.958 1.90933 16.51 1.824L15.774 1.696C15.4967 1.632 15.358 1.504 15.358 1.312C15.358 1.07733 15.518 0.959999 15.838 0.959999H22.334C23.5927 0.959999 24.7127 1.20533 25.694 1.696C26.6753 2.18667 27.4433 2.86933 27.998 3.744C28.5527 4.59733 28.83 5.58933 28.83 6.72C28.83 8.064 28.4247 9.28 27.614 10.368C26.8033 11.4347 25.7793 12.192 24.542 12.64C24.3927 12.6827 24.3073 12.7573 24.286 12.864C24.286 12.9493 24.3607 13.024 24.51 13.088C25.1927 13.408 25.726 13.856 26.11 14.432C26.5153 15.008 26.8247 15.776 27.038 16.736L27.742 20C27.9767 21.1093 28.254 21.8987 28.574 22.368C28.894 22.8373 29.2993 23.072 29.79 23.072C29.9607 23.072 30.11 23.0507 30.238 23.008C30.3873 22.944 30.5687 22.8373 30.782 22.688C30.9527 22.5813 31.1127 22.56 31.262 22.624C31.4113 22.6667 31.486 22.7733 31.486 22.944C31.486 23.3067 31.2513 23.6267 30.782 23.904C30.3127 24.16 29.7687 24.288 29.15 24.288ZM22.014 12.128C23.4647 12.128 24.5633 11.648 25.31 10.688C26.0567 9.70667 26.43 8.40533 26.43 6.784C26.43 5.20533 25.9927 3.97867 25.118 3.104C24.2647 2.208 23.0807 1.76 21.566 1.76C20.4353 1.76 19.87 2.18667 19.87 3.04V10.368C19.87 11.5413 20.5847 12.128 22.014 12.128ZM29.4665 24C29.1465 24 28.9865 23.8933 28.9865 23.68C28.9865 23.4667 29.1358 23.328 29.4345 23.264L29.9145 23.168C30.3412 23.0827 30.6612 22.88 30.8745 22.56C31.0878 22.2187 31.2692 21.7493 31.4185 21.152L36.3785 1.152C36.4212 0.938665 36.4852 0.799999 36.5705 0.735998C36.6772 0.671999 36.7732 0.639999 36.8585 0.639999C36.9652 0.639999 37.0612 0.671999 37.1465 0.735998C37.2532 0.799999 37.3278 0.938665 37.3705 1.152L42.4265 21.44C42.5758 22.0373 42.7465 22.4533 42.9385 22.688C43.1305 22.9227 43.4292 23.0827 43.8345 23.168L44.3145 23.264C44.6132 23.328 44.7625 23.4667 44.7625 23.68C44.7625 23.8933 44.6025 24 44.2825 24H38.8105C38.5118 24 38.3625 23.8827 38.3625 23.648C38.3625 23.4133 38.5438 23.2853 38.9065 23.264L39.5145 23.2C39.8772 23.1573 40.1012 23.04 40.1865 22.848C40.2932 22.656 40.2932 22.3253 40.1865 21.856L38.9705 16.896C38.8425 16.3413 38.4905 16.064 37.9145 16.064H34.5545C33.9998 16.064 33.6478 16.3413 33.4985 16.896L32.4105 21.184C32.0905 22.4 32.4105 23.072 33.3705 23.2L33.8505 23.264C34.2132 23.328 34.3945 23.456 34.3945 23.648C34.3945 23.8827 34.2452 24 33.9465 24H29.4665ZM34.4585 15.104H37.9785C38.3198 15.104 38.4585 14.9227 38.3945 14.56L36.3465 5.984H36.1865L34.0425 14.56C33.9785 14.9227 34.1172 15.104 34.4585 15.104ZM49.328 24.32C49.2427 24.32 49.1467 24.288 49.04 24.224C48.9333 24.16 48.8587 24.0213 48.816 23.808L43.76 3.52C43.6107 2.92267 43.44 2.50667 43.248 2.272C43.0773 2.03733 42.7787 1.87733 42.352 1.792L41.872 1.696C41.5733 1.632 41.424 1.49333 41.424 1.28C41.424 1.06667 41.584 0.959999 41.904 0.959999H47.376C47.6747 0.959999 47.824 1.07733 47.824 1.312C47.824 1.54667 47.6427 1.67467 47.28 1.696L46.672 1.76C46.3093 1.78133 46.0747 1.89867 45.968 2.112C45.8827 2.304 45.8933 2.63467 46 3.104L49.712 18.496C49.7547 18.624 49.8187 18.688 49.904 18.688C50.0107 18.688 50.0747 18.624 50.096 18.496L53.776 3.776C54.0747 2.56 53.7547 1.888 52.816 1.76L52.336 1.696C51.9733 1.632 51.792 1.504 51.792 1.312C51.792 1.07733 51.9413 0.959999 52.24 0.959999H56.72C57.04 0.959999 57.2 1.06667 57.2 1.28C57.2 1.49333 57.0507 1.632 56.752 1.696L56.272 1.792C55.8667 1.87733 55.5467 2.09067 55.312 2.432C55.0987 2.752 54.9173 3.21067 54.768 3.808L49.808 23.808C49.7653 24.0213 49.6907 24.16 49.584 24.224C49.4987 24.288 49.4133 24.32 49.328 24.32ZM57.213 24C56.893 24 56.733 23.8827 56.733 23.648C56.733 23.456 56.8717 23.328 57.149 23.264L57.885 23.136C58.333 23.0507 58.621 22.9333 58.749 22.784C58.8983 22.6347 58.973 22.336 58.973 21.888V3.072C58.973 2.624 58.8983 2.32533 58.749 2.176C58.621 2.02667 58.333 1.90933 57.885 1.824L57.149 1.696C56.8717 1.632 56.733 1.504 56.733 1.312C56.733 1.07733 56.893 0.959999 57.213 0.959999H67.965C68.4557 0.959999 68.7223 1.20533 68.765 1.696L69.021 7.008C69.0637 7.37067 68.925 7.552 68.605 7.552C68.349 7.552 68.1997 7.41333 68.157 7.136L67.965 5.952C67.7303 4.50133 67.2503 3.44533 66.525 2.784C65.7997 2.10133 64.797 1.76 63.517 1.76C62.6637 1.76 62.0663 1.888 61.725 2.144C61.405 2.37867 61.245 2.80533 61.245 3.424V11.136C61.245 11.4347 61.3943 11.584 61.693 11.584H63.293C64.2317 11.584 64.8077 11.0827 65.021 10.08L65.341 8.48C65.4263 8.16 65.6077 8.02133 65.885 8.064C66.1197 8.10667 66.237 8.288 66.237 8.608V15.808C66.237 16.128 66.1197 16.3093 65.885 16.352C65.6077 16.3947 65.4263 16.256 65.341 15.936L65.021 14.368C64.8717 13.6213 64.6583 13.1307 64.381 12.896C64.125 12.6613 63.7517 12.544 63.261 12.544H61.693C61.3943 12.544 61.245 12.6933 61.245 12.992V21.024C61.245 21.792 61.437 22.3467 61.821 22.688C62.2263 23.0293 62.9517 23.2 63.997 23.2C65.0637 23.2 65.9703 22.9333 66.717 22.4C67.485 21.8453 68.0183 20.8213 68.317 19.328L68.701 17.44C68.765 17.1627 68.925 17.024 69.181 17.024C69.4797 17.024 69.6077 17.2053 69.565 17.568L69.245 23.264C69.2023 23.7547 68.9357 24 68.445 24H57.213Z" fill="#EA373D"/>
</g>
<defs>
<filter id="filter0_g_278_413" x="0.482727" y="0.467956" width="69.3182" height="24.024" filterUnits="userSpaceOnUse" color-interpolation-filters="sRGB">
<feFlood flood-opacity="0" result="BackgroundImageFix"/>
<feBlend mode="normal" in="SourceGraphic" in2="BackgroundImageFix" result="shape"/>
<feTurbulence type="fractalNoise" baseFrequency="0.3148338794708252 0.3148338794708252" numOctaves="3" seed="6789" />
<feDisplacementMap in="shape" scale="0.34411635994911194" xChannelSelector="R" yChannelSelector="G" result="displacedImage" width="100%" height="100%" />
<feMerge result="effect1_texture_278_413">
<feMergeNode in="displacedImage"/>
</feMerge>
</filter>
</defs>
</svg>
